<svg width="14" height="20" viewBox="0 0 14 20" fill="none" xmlns="http://www.w3.org/2000/svg">
<path d="M13.8716 20L11.7613 12.9058C11.7094 11.0176 10.5582 9.40219 8.92369 8.67803V1.9238C8.92369 0.86291 8.06078 0 6.99989 0C5.93926 0 5.07635 0.86291 5.07635 1.9238V8.67803C3.44211 9.40219 2.2914 11.0174 2.23946 12.9045L0.128479 19.9992H13.8716V20ZM10.6573 18.4945L9.79638 15.2812C9.72437 15.014 9.45087 14.8537 9.18188 14.9267C8.91416 14.9979 8.75532 15.2732 8.82709 15.5409L9.61798 18.4945H7.50123V15.4107C7.50123 15.1337 7.27641 14.9089 6.99939 14.9089C6.72238 14.9089 6.49755 15.1337 6.49755 15.4107V18.4937H4.63197L5.42312 15.5402C5.49488 15.2729 5.33605 14.9972 5.06832 14.9257C4.80034 14.8531 4.52533 15.0132 4.45382 15.2805L3.59292 18.4937H2.14637L3.54625 13.789C3.54725 13.789 3.54825 13.789 3.54926 13.789H10.4495C10.4505 13.789 10.4515 13.789 10.4533 13.789L11.8522 18.4937H10.657L10.6573 18.4945ZM6.58186 1.9238C6.58186 1.6932 6.76955 1.50551 6.99989 1.50551C7.23049 1.50551 7.41818 1.6932 7.41818 1.9238V8.29036C7.28017 8.27832 7.14116 8.26929 7.00014 8.26929C6.85913 8.26929 6.71987 8.27832 6.58186 8.29036V1.9238ZM7.00014 9.7748C8.53953 9.7748 9.82926 10.8477 10.171 12.284H3.82928C4.17053 10.8475 5.46101 9.7748 7.00014 9.7748Z" fill="#6A6A6A"/>
</svg>
