<svg width="53" height="52" viewBox="0 0 53 52" fill="none" xmlns="http://www.w3.org/2000/svg">
<circle cx="26.5" cy="26" r="26" fill="black"/>
<path d="M35.4673 32.924C35.1195 33.7275 34.7077 34.4672 34.2307 35.1472C33.5805 36.0743 33.0481 36.716 32.6378 37.0724C32.0018 37.6573 31.3203 37.9568 30.5906 37.9739C30.0667 37.9739 29.4349 37.8248 28.6995 37.5224C27.9617 37.2214 27.2837 37.0724 26.6637 37.0724C26.0134 37.0724 25.3161 37.2214 24.5702 37.5224C23.8231 37.8248 23.2213 37.9824 22.7612 37.998C22.0614 38.0278 21.3639 37.7197 20.6677 37.0724C20.2233 36.6848 19.6675 36.0204 19.0016 35.0791C18.2872 34.0739 17.6999 32.9084 17.2398 31.5795C16.747 30.1442 16.5 28.7543 16.5 27.4087C16.5 25.8673 16.833 24.5379 17.5002 23.4238C18.0245 22.529 18.722 21.8231 19.5949 21.3049C20.4679 20.7867 21.4112 20.5227 22.427 20.5058C22.9828 20.5058 23.7117 20.6777 24.6174 21.0156C25.5207 21.3546 26.1006 21.5265 26.3549 21.5265C26.545 21.5265 27.1892 21.3255 28.2814 20.9247C29.3143 20.5531 30.186 20.3992 30.9001 20.4598C32.8352 20.6159 34.2889 21.3788 35.2558 22.753C33.5251 23.8016 32.669 25.2703 32.6861 27.1544C32.7017 28.622 33.2341 29.8432 34.2804 30.8129C34.7546 31.2629 35.2842 31.6107 35.8733 31.8578C35.7456 32.2283 35.6107 32.5832 35.4673 32.924ZM31.0293 15.4601C31.0293 16.6104 30.609 17.6844 29.7714 18.6785C28.7606 19.8602 27.5379 20.5431 26.2121 20.4354C26.1952 20.2974 26.1854 20.1521 26.1854 19.9995C26.1854 18.8953 26.6661 17.7135 27.5198 16.7472C27.946 16.258 28.488 15.8512 29.1453 15.5267C29.8012 15.2071 30.4216 15.0303 31.0051 15C31.0222 15.1538 31.0293 15.3076 31.0293 15.4601V15.4601Z" fill="white"/>
</svg>
