<svg width="20" height="19" viewBox="0 0 20 19" fill="none" xmlns="http://www.w3.org/2000/svg">
<path d="M17.4259 5.55265H12.3255V2.79651C12.3255 1.53018 11.1809 0.5 9.7739 0.5H2.57407C1.16705 0.5 0.0223999 1.53018 0.0223999 2.79651V8.08772C0.0223999 9.35405 1.16709 10.3842 2.57407 10.3842H3.53653L3.31915 12.7048C3.26314 13.3024 4.02575 13.665 4.54368 13.3022L7.67449 11.1089V13.1404C7.67449 14.4067 8.81918 15.4369 10.2262 15.4369H11.2912L15.4564 18.3548C15.9756 18.7185 16.7369 18.3546 16.6809 17.7574L16.4635 15.4369H17.426C18.833 15.4369 19.9777 14.4067 19.9777 13.1404V7.84965C19.9776 6.58304 18.8329 5.55265 17.4259 5.55265ZM7.67446 7.84961V9.37469L4.98012 11.2622L5.1211 9.75747C5.15852 9.35862 4.80856 9.01581 4.36356 9.01581H2.57407C2.00544 9.01581 1.54287 8.59946 1.54287 8.08772V2.79651C1.54287 2.28474 2.00544 1.86842 2.57407 1.86842H9.7739C10.3425 1.86842 10.8051 2.28474 10.8051 2.79651V5.55265H10.2261C8.81918 5.55265 7.67446 6.58304 7.67446 7.84961ZM18.4571 13.1403C18.4571 13.652 17.9946 14.0684 17.4259 14.0684H15.6364C15.1916 14.0684 14.8414 14.4111 14.8789 14.8101L15.0199 16.3149L12.0191 14.2127C11.8857 14.1192 11.7213 14.0684 11.5521 14.0684H10.2261C9.65746 14.0684 9.19484 13.652 9.19484 13.1403C9.19484 12.5582 9.19484 8.41963 9.19484 7.84961C9.19484 7.3376 9.65746 6.92107 10.2261 6.92107H11.5653H17.4259C17.9945 6.92107 18.4571 7.3376 18.4571 7.84961V13.1403H18.4571Z" fill="#6A6A6A"/>
<path d="M15.8801 11.1001C16.2445 11.1001 16.54 10.8342 16.54 10.5062C16.54 10.1782 16.2445 9.91232 15.8801 9.91232C15.5157 9.91232 15.2202 10.1782 15.2202 10.5062C15.2202 10.8342 15.5157 11.1001 15.8801 11.1001Z" fill="#6A6A6A"/>
<path d="M13.826 11.1001C14.1904 11.1001 14.4858 10.8342 14.4858 10.5062C14.4858 10.1782 14.1904 9.91232 13.826 9.91232C13.4615 9.91232 13.1661 10.1782 13.1661 10.5062C13.1661 10.8342 13.4615 11.1001 13.826 11.1001Z" fill="#6A6A6A"/>
<path d="M11.7718 11.1001C12.1363 11.1001 12.4317 10.8342 12.4317 10.5062C12.4317 10.1782 12.1363 9.91232 11.7718 9.91232C11.4074 9.91232 11.1119 10.1782 11.1119 10.5062C11.1119 10.8342 11.4074 11.1001 11.7718 11.1001Z" fill="#6A6A6A"/>
</svg>
