<svg width="18" height="19" viewBox="0 0 18 19" fill="none" xmlns="http://www.w3.org/2000/svg">
<g clip-path="url(#clip0_1_1738)">
<path d="M18 9.49995C18 9.04809 17.6337 8.68176 17.1818 8.68176H0.818182C0.366327 8.68176 0 9.04809 0 9.49995C0 12.7326 1.71344 15.5722 4.27947 17.1594C4.16176 17.3011 4.09091 17.4831 4.09091 17.6818C4.09091 18.1336 4.45724 18.5 4.90909 18.5H13.0909C13.5428 18.5 13.9091 18.1336 13.9091 17.6818C13.9091 17.4831 13.8382 17.3012 13.7205 17.1594C16.2866 15.5722 18 12.7326 18 9.49995ZM9 16.8636C5.21624 16.8636 2.08985 13.9948 1.68153 10.3181H16.3185C15.9101 13.9948 12.7838 16.8636 9 16.8636Z" fill="#6A6A6A"/>
<path d="M5.18183 6.22728C5.18183 6.67914 5.54816 7.04547 6.00002 7.04547C6.45187 7.04547 6.8182 6.67914 6.8182 6.22728C6.8182 5.0701 6.20674 4.4587 5.76023 4.0123C5.35911 3.61117 5.18178 3.41448 5.18183 2.9545C5.18178 2.49468 5.35916 2.29794 5.7604 1.8967C6.07993 1.57723 6.07993 1.05916 5.76045 0.739683C5.44098 0.420101 4.92285 0.42021 4.60333 0.739628C4.15687 1.18614 3.54531 1.79759 3.54547 2.9545C3.54531 4.11157 4.15676 4.72297 4.60327 5.16937C5.00445 5.57061 5.18183 5.76736 5.18183 6.22728Z" fill="#6A6A6A"/>
<path d="M9.00001 6.22728C9.00001 6.67914 9.36634 7.04547 9.81819 7.04547C10.27 7.04547 10.6364 6.67914 10.6364 6.22728C10.6364 5.0701 10.0249 4.4587 9.57846 4.0123C9.17728 3.61117 8.99995 3.41448 9.00001 2.9545C8.99995 2.49468 9.17734 2.29794 9.57857 1.8967C9.8981 1.57723 9.8981 1.05916 9.57863 0.739683C9.25916 0.420101 8.74103 0.42021 8.4215 0.739628C7.97499 1.18608 7.36348 1.79754 7.36359 2.9545C7.36342 4.11157 7.97488 4.72297 8.42139 5.16937C8.82263 5.57061 9.00001 5.76736 9.00001 6.22728Z" fill="#6A6A6A"/>
<path d="M12.8183 6.22731C12.8183 6.67917 13.1846 7.0455 13.6365 7.0455C14.0883 7.0455 14.4547 6.67917 14.4547 6.22731C14.4547 5.07013 13.8432 4.45873 13.3968 4.01233C12.9956 3.6112 12.8182 3.41451 12.8183 2.95453C12.8182 2.49471 12.9956 2.29797 13.3969 1.89673C13.7164 1.57726 13.7164 1.05919 13.3969 0.739713C13.0774 0.420131 12.5593 0.420241 12.2398 0.739659C11.7933 1.18611 11.1818 1.79757 11.1819 2.95453C11.1817 4.1116 11.7932 4.723 12.2397 5.1694C12.6409 5.57064 12.8183 5.76739 12.8183 6.22731Z" fill="#6A6A6A"/>
</g>
<defs>
<clipPath id="clip0_1_1738">
<rect width="18" height="18" fill="white" transform="translate(0 0.5)"/>
</clipPath>
</defs>
</svg>
