<svg width="20" height="20" viewBox="0 0 20 20" fill="none" xmlns="http://www.w3.org/2000/svg">
<path d="M17.5 8.33333H5.83335V5.83333C5.83335 4.91417 6.58085 4.16667 7.50002 4.16667C8.41919 4.16667 9.16669 4.91417 9.16669 5.83333H10.8334C10.8334 3.995 9.33835 2.5 7.50002 2.5C5.66169 2.5 4.16669 3.995 4.16669 5.83333V8.33333H2.50002C2.27901 8.33333 2.06704 8.42113 1.91076 8.57741C1.75448 8.73369 1.66669 8.94565 1.66669 9.16667V10.8333C1.66669 13.005 3.06169 14.8525 5.00002 15.5417V18.3333H6.66669V15.8333H13.3334V18.3333H15V15.5417C16.9384 14.8525 18.3334 13.005 18.3334 10.8333V9.16667C18.3334 8.94565 18.2456 8.73369 18.0893 8.57741C17.933 8.42113 17.721 8.33333 17.5 8.33333ZM16.6667 10.8333C16.6667 12.6717 15.1717 14.1667 13.3334 14.1667H6.66669C4.82835 14.1667 3.33335 12.6717 3.33335 10.8333V10H16.6667V10.8333Z" fill="#6A6A6A"/>
</svg>
