<svg width="18" height="19" viewBox="0 0 18 19" fill="none" xmlns="http://www.w3.org/2000/svg">
<path d="M17.4336 3.18235C17.0477 3.10063 16.6686 3.34715 16.5868 3.73305L16.3844 4.68827C15.9028 4.7307 15.5956 4.83456 15.3178 4.92898C15.0145 5.03212 14.7749 5.11355 14.2381 5.11355C13.7013 5.11355 13.4617 5.03212 13.1584 4.92898C12.799 4.80684 12.3917 4.66842 11.6189 4.66842C10.846 4.66842 10.4387 4.80684 10.0794 4.92898C9.77603 5.03212 9.53641 5.11355 8.9997 5.11355C8.46305 5.11355 8.22343 5.03212 7.9201 4.92898C7.56078 4.80684 7.15354 4.66837 6.3807 4.66837C5.60785 4.66837 5.20057 4.8068 4.84125 4.92898C4.53792 5.03212 4.29835 5.11355 3.76169 5.11355C3.22499 5.11355 2.98542 5.03212 2.68204 4.92898C2.40433 4.83456 2.09719 4.7307 1.61554 4.68827L1.41316 3.73305C1.3314 3.3471 0.952308 3.10058 0.566362 3.18235C0.180463 3.26411 -0.0661046 3.64324 0.015656 4.02914L2.39657 15.2671C2.46652 15.5971 2.7579 15.8333 3.09532 15.8333H14.9047C15.2421 15.8333 15.5335 15.5971 15.6034 15.2671L17.9843 4.02914C18.0661 3.64324 17.8195 3.26411 17.4336 3.18235ZM14.3259 14.4047H3.67412L1.93367 6.18977C2.03139 6.21668 2.12348 6.24791 2.22224 6.28149C2.58157 6.40363 2.98885 6.5421 3.76169 6.5421C4.53449 6.5421 4.94172 6.40367 5.301 6.28153C5.60438 6.17839 5.84395 6.09696 6.38065 6.09696C6.91731 6.09696 7.15692 6.17839 7.46025 6.28153C7.81958 6.40367 8.22681 6.54215 8.99966 6.54215C9.77255 6.54215 10.1798 6.40372 10.5392 6.28153C10.8425 6.17839 11.0821 6.09696 11.6188 6.09696C12.1555 6.09696 12.3952 6.17839 12.6986 6.28153C13.0579 6.40367 13.4652 6.5421 14.2381 6.5421C15.011 6.5421 15.4183 6.40367 15.7776 6.28149C15.8765 6.24791 15.9686 6.21672 16.0664 6.18977L14.3259 14.4047Z" fill="#6A6A6A"/>
</svg>
