<svg width="53" height="52" viewBox="0 0 53 52" fill="none" xmlns="http://www.w3.org/2000/svg">
<circle cx="26.5" cy="26" r="26" fill="#4561A5"/>
<path d="M38.5 26.6397C38.5 20.2884 33.3512 15.1397 27 15.1397C20.6487 15.1397 15.5 20.2884 15.5 26.6397C15.5 32.3797 19.7054 37.1373 25.2031 38V29.9639H22.2832V26.6397H25.2031V24.1061C25.2031 21.2239 26.92 19.6319 29.5468 19.6319C30.805 19.6319 32.1211 19.8565 32.1211 19.8565V22.6866H30.6709C29.2424 22.6866 28.7968 23.573 28.7968 24.4825V26.6397H31.9863L31.4764 29.9639H28.7968V38C34.2946 37.1373 38.5 32.3797 38.5 26.6397Z" fill="white"/>
</svg>
