<svg width="53" height="52" viewBox="0 0 53 52" fill="none" xmlns="http://www.w3.org/2000/svg">
<circle cx="26.5" cy="26" r="26" fill="#F8F6F5"/>
<path fill-rule="evenodd" clip-rule="evenodd" d="M38.04 26.7613C38.04 25.9459 37.9668 25.1618 37.8309 24.4091H27V28.8575H33.1891C32.9225 30.295 32.1122 31.5129 30.8943 32.3284V35.2138H34.6109C36.7854 33.2118 38.04 30.2636 38.04 26.7613Z" fill="#4285F4"/>
<path fill-rule="evenodd" clip-rule="evenodd" d="M26.9999 37.9998C30.1049 37.9998 32.7081 36.97 34.6108 35.2137L30.8942 32.3282C29.8644 33.0182 28.5472 33.4259 26.9999 33.4259C24.0047 33.4259 21.4694 31.403 20.5651 28.6848H16.7231V31.6644C18.6154 35.4228 22.5044 37.9998 26.9999 37.9998Z" fill="#34A853"/>
<path fill-rule="evenodd" clip-rule="evenodd" d="M20.5652 28.6851C20.3352 27.9951 20.2045 27.2581 20.2045 26.5001C20.2045 25.7422 20.3352 25.0051 20.5652 24.3151V21.3356H16.7232C15.9443 22.8881 15.5 24.6444 15.5 26.5001C15.5 28.3558 15.9443 30.1122 16.7232 31.6647L20.5652 28.6851Z" fill="#FBBC05"/>
<path fill-rule="evenodd" clip-rule="evenodd" d="M26.9999 19.5739C28.6883 19.5739 30.2042 20.1541 31.396 21.2936L34.6944 17.9952C32.7029 16.1395 30.0997 15 26.9999 15C22.5044 15 18.6154 17.577 16.7231 21.3355L20.5651 24.315C21.4694 21.5968 24.0047 19.5739 26.9999 19.5739Z" fill="#EA4335"/>
</svg>
