<svg width="24" height="24" viewBox="0 0 24 24" fill="none" xmlns="http://www.w3.org/2000/svg">
<path d="M22.331 6.94293L21.9312 7.57751L21.9323 7.5782L22.331 6.94293ZM20.958 6.87897L21.296 7.54849L21.2981 7.54743L20.958 6.87897ZM22.331 17.0577L22.7285 17.6936L22.7296 17.6929L22.331 17.0577ZM20.957 17.1206L21.2978 16.4525L21.2948 16.451L20.957 17.1206ZM19.476 16.3734L19.1365 17.0422L19.1381 17.043L19.476 16.3734ZM19.476 7.6272L19.8135 8.29697L19.814 8.29671L19.476 7.6272ZM11.9051 3.75H6.11304V5.25H11.9051V3.75ZM16.7681 8.56091C16.7681 7.18288 16.2777 5.96942 15.3968 5.09978C14.5166 4.23083 13.2923 3.75 11.9051 3.75V5.25C12.9399 5.25 13.7721 5.60369 14.343 6.16723C14.9131 6.73007 15.2681 7.54707 15.2681 8.56091H16.7681ZM16.7681 15.4391V8.56091H15.2681V15.4391H16.7681ZM11.9051 20.25C13.2923 20.25 14.5166 19.7692 15.3968 18.9002C16.2777 18.0306 16.7681 16.8171 16.7681 15.4391H15.2681C15.2681 16.4529 14.9131 17.2699 14.343 17.8328C13.7721 18.3963 12.9399 18.75 11.9051 18.75V20.25ZM6.11304 20.25H11.9051V18.75H6.11304V20.25ZM1.25 15.4391C1.25 16.8171 1.74046 18.0306 2.62135 18.9002C3.50154 19.7692 4.72585 20.25 6.11304 20.25V18.75C5.0782 18.75 4.246 18.3963 3.67517 17.8328C3.10505 17.2699 2.75 16.4529 2.75 15.4391H1.25ZM1.25 8.56091V15.4391H2.75V8.56091H1.25ZM6.11304 3.75C4.72585 3.75 3.50154 4.23083 2.62135 5.09978C1.74046 5.96942 1.25 7.18288 1.25 8.56091H2.75C2.75 7.54707 3.10505 6.73007 3.67517 6.16723C4.246 5.60369 5.0782 5.25 6.11304 5.25V3.75ZM22.7308 6.30835C22.0887 5.9039 21.2927 5.86717 20.6179 6.21051L21.2981 7.54743C21.5012 7.44407 21.7352 7.45404 21.9312 7.57751L22.7308 6.30835ZM23.75 8.16222C23.75 7.40882 23.3708 6.71001 22.7296 6.30766L21.9323 7.5782C22.1292 7.70174 22.25 7.91664 22.25 8.16222H23.75ZM23.75 15.8384V8.16222H22.25V15.8384H23.75ZM22.7296 17.6929C23.3706 17.2907 23.75 16.5931 23.75 15.8384H22.25C22.25 16.0847 22.1294 16.2987 21.9323 16.4224L22.7296 17.6929ZM21.588 18.0239C21.9892 18.0239 22.3826 17.9099 22.7285 17.6936L21.9334 16.4217C21.8214 16.4917 21.7027 16.5239 21.588 16.5239V18.0239ZM20.6162 17.7887C20.9219 17.9447 21.2537 18.0239 21.588 18.0239V16.5239C21.4923 16.5239 21.394 16.5016 21.2978 16.4525L20.6162 17.7887ZM19.1381 17.043L20.6191 17.7902L21.2948 16.451L19.8138 15.7038L19.1381 17.043ZM17.838 14.9165C17.838 15.8154 18.3332 16.6344 19.1365 17.0422L19.8154 15.7046C19.5227 15.556 19.338 15.2582 19.338 14.9165H17.838ZM17.838 9.08303V14.9165H19.338V9.08303H17.838ZM19.1385 6.95743C18.3328 7.3634 17.838 8.1838 17.838 9.08303H19.338C19.338 8.73963 19.5231 8.44328 19.8135 8.29697L19.1385 6.95743ZM20.62 6.20946L19.1379 6.95768L19.814 8.29671L21.296 7.54848L20.62 6.20946Z" fill="#B4B4B4"/>
</svg>
