<svg width="21" height="20" viewBox="0 0 21 20" fill="none" xmlns="http://www.w3.org/2000/svg">
<path d="M8.24039 3.52177C9.19793 1.17392 9.6767 0 10.5 0C11.3233 0 11.8021 1.17393 12.7596 3.52178L12.8042 3.63111C13.3452 4.95752 13.6156 5.62073 14.1669 6.02384C14.7182 6.42695 15.4418 6.49069 16.8891 6.61817L17.1507 6.64122C19.5194 6.84986 20.7037 6.95418 20.9571 7.69527C21.2105 8.43636 20.331 9.22338 18.5719 10.7974L17.9849 11.3228C17.0944 12.1196 16.6492 12.518 16.4416 13.0401C16.4029 13.1375 16.3707 13.2373 16.3453 13.3389C16.2089 13.8832 16.3393 14.4612 16.6 15.6171L16.6812 15.9769C17.1604 18.1013 17.4 19.1635 16.9817 19.6216C16.8253 19.7928 16.6222 19.9161 16.3964 19.9767C15.7924 20.1388 14.9348 19.4515 13.2197 18.0769C12.0935 17.1743 11.5304 16.723 10.8839 16.6215C10.6296 16.5815 10.3704 16.5815 10.1161 16.6215C9.46961 16.723 8.9065 17.1743 7.78028 18.0769C6.06515 19.4515 5.20759 20.1388 4.60356 19.9767C4.37784 19.9161 4.17466 19.7928 4.01833 19.6216C3.59997 19.1635 3.83958 18.1013 4.3188 15.9769L4.39997 15.6171C4.66073 14.4612 4.79111 13.8832 4.6547 13.3389C4.62926 13.2373 4.59707 13.1375 4.55836 13.0401C4.35084 12.518 3.90561 12.1196 3.01514 11.3228L2.42805 10.7974C0.668989 9.22338 -0.210543 8.43636 0.0428746 7.69527C0.296292 6.95418 1.48062 6.84986 3.84928 6.64122L4.11092 6.61817C5.5582 6.49069 6.28184 6.42695 6.8331 6.02384C7.38436 5.62073 7.65484 4.95752 8.1958 3.6311L8.24039 3.52177Z" fill="#FFB74B"/>
</svg>
